# xmcd CD database file
#
# Track frame offsets:
#	150
#	10528
#	28257
#	54258
#	71155
#	82869
#	85078
#	106178
#	134851
#	149012
#	163381
#	182286
#	196774
#	219829
#	236625
#
# Disc length: 3483 seconds
#
# Revision: 1
# Processed by: cddbd v1.5.2PL0 Copyright (c) Steve Scherf et al.
# Submitted via: CDex 1.51
#
DISCID=c80d990f
DTITLE=Pumpkinhead - Orange Moon Over Brooklyn
DYEAR=2006
DGENRE=Hip-Hop
TTITLE0=Alkaline 'N' Acid ft. Raiden
TTITLE1=Authentic ft. D.V. Alias Khryst
TTITLE2=I Just Wanna Rhyme
TTITLE3=Trifactor ft. Supastition and Wordsworth
TTITLE4=Grenades
TTITLE5=DP ONE Interlude
TTITLE6=Rock On
TTITLE7=Anything
TTITLE8=Swordfish ft. Archrival
TTITLE9=Emcee
TTITLE10=Jukebox
TTITLE11=The Best
TTITLE12=Monkey Shine ft. The Plague
TTITLE13=Here
TTITLE14=Anthem For The End Of The World ft. Jean Grae and Chas
EXTD=YEAR: 2006
EXTT0=
EXTT1=
EXTT2=
EXTT3=
EXTT4=
EXTT5=
EXTT6=
EXTT7=
EXTT8=
EXTT9=
EXTT10=
EXTT11=
EXTT12=
EXTT13=
EXTT14=
PLAYORDER=
